<svg version="1.1" xmlns="http://www.w3.org/2000/svg" xmlns:xlink="http://www.w3.org/1999/xlink" width="75.2561" height="76.5" viewBox="0,0,75.2561,76.5"><g transform="translate(-202.37195,-141.75)"><g data-paper-data="{&quot;isPaintingLayer&quot;:true}" fill-rule="nonzero" stroke-linejoin="miter" stroke-miterlimit="10" stroke-dasharray="" stroke-dashoffset="0" style="mix-blend-mode: normal"><path d="" fill="#5ae069" stroke="none" stroke-width="0" stroke-linecap="butt"/><path d="M277.62805,180c0,21.12489 -16.84665,38.25 -37.62805,38.25c-20.7814,0 -37.62805,-17.12511 -37.62805,-38.25c0,-21.12489 16.84665,-38.25 37.62805,-38.25c20.7814,0 37.62805,17.12511 37.62805,38.25z" fill="#8366ff" stroke="none" stroke-width="0" stroke-linecap="butt"/><path d="M218.38554,187.86666c0,-6.50511 0,-11.59403 0,-15.16667c0,-5.25725 5.01723,-9.94999 9.91446,-9.94999c5.13093,0 14.45627,0 23.33333,0c4.04072,0 9.98112,5.04366 9.98112,8.94999c0,3.56305 0,25.55001 0,25.55001c0,0 -25.55703,0 -33.98112,0c-2.70056,0 -9.2478,-3.08729 -9.2478,-9.38334z" fill="#ffffff" stroke="none" stroke-width="0" stroke-linecap="butt"/><path d="M229.43333,176.23333c0,-0.82843 0.67157,-1.5 1.5,-1.5c0.82843,0 1.5,0.67157 1.5,1.5c0,0.82843 -0.67157,1.5 -1.5,1.5c-0.82843,0 -1.5,-0.67157 -1.5,-1.5z" fill="#000000" stroke="none" stroke-width="0.5" stroke-linecap="butt"/><path d="M232.6,187.23333c0,-0.82843 0.67157,-1.5 1.5,-1.5c0.82843,0 1.5,0.67157 1.5,1.5c0,0.82843 -0.67157,1.5 -1.5,1.5c-0.82843,0 -1.5,-0.67157 -1.5,-1.5z" fill="#000000" stroke="none" stroke-width="0.5" stroke-linecap="butt"/><path d="M245.1,187.4c0,-0.82843 0.67157,-1.5 1.5,-1.5c0.82843,0 1.5,0.67157 1.5,1.5c0,0.82843 -0.67157,1.5 -1.5,1.5c-0.82843,0 -1.5,-0.67157 -1.5,-1.5z" fill="#000000" stroke="none" stroke-width="0.5" stroke-linecap="butt"/><path d="M248.93333,176.06667c0,-0.82843 0.67157,-1.5 1.5,-1.5c0.82843,0 1.5,0.67157 1.5,1.5c0,0.82843 -0.67157,1.5 -1.5,1.5c-0.82843,0 -1.5,-0.67157 -1.5,-1.5z" fill="#000000" stroke="none" stroke-width="0.5" stroke-linecap="butt"/><path d="M239.43333,169.9c0,-0.82843 0.67157,-1.5 1.5,-1.5c0.82843,0 1.5,0.67157 1.5,1.5c0,0.82843 -0.67157,1.5 -1.5,1.5c-0.82843,0 -1.5,-0.67157 -1.5,-1.5z" fill="#000000" stroke="none" stroke-width="0.5" stroke-linecap="butt"/><path d="M235.1,186.73333l14.66667,-10.5h1.16667l-19.83333,0.66667l3,10l12,0.5l4.33333,-11.33333l-9.5,-6.16667l-6.83333,17" fill="none" stroke="#000000" stroke-width="1.5" stroke-linecap="round"/><path d="M240.93333,169.9c0,0 5.86184,16.89939 5.66667,17.16667c-0.15833,0.21683 -15,-11.16667 -15,-11.16667l9.33333,-5.83333" fill="none" stroke="#000000" stroke-width="1.5" stroke-linecap="round"/></g></g></svg>