<svg version="1.1" xmlns="http://www.w3.org/2000/svg" xmlns:xlink="http://www.w3.org/1999/xlink" width="160.20414" height="136.38052" viewBox="0,0,160.20414,136.38052"><g transform="translate(-159.89793,-91.80974)"><g data-paper-data="{&quot;isPaintingLayer&quot;:true}" fill-rule="nonzero" stroke="none" stroke-width="0" stroke-linecap="butt" stroke-linejoin="miter" stroke-miterlimit="10" stroke-dasharray="" stroke-dashoffset="0" style="mix-blend-mode: normal"><g><path d="M207.10147,217.67241l7.5,-23.19653l7.5,6.18574z" fill="#858585"/><path d="M163.77856,150.88575c15.41047,-6.02875 117.30962,-45.71876 149.09383,-58.09814c5.95722,-2.32023 8.27113,-0.29516 6.79961,3.79656c-8.77079,24.38814 -39.39769,109.44551 -45.47143,126.33419c-2.01314,5.59776 -9.53494,6.9329 -15.22723,3.06273c-14.27557,-9.70594 -75.35794,-51.40015 -96.53853,-65.80079c-4.46389,-3.03499 -2.41116,-7.82558 1.34375,-9.29454z" fill="#d9d9d9"/><path d="M194.52378,181.97173c0,0 103.02123,-74.04863 118.48694,-85.33537c3.8173,-2.78584 4.54893,-2.5802 1.53391,0.48097c-12.59265,12.78537 -99.53133,98.89114 -99.53133,98.89114z" fill="#a5a5a5"/><path d="M194.47647,181.9111l20.75,13.72461c0,0 -6.18139,17.01521 -7.72911,21.04628c-0.60824,1.58416 -1.77524,1.53749 -2.29021,-0.27244c-1.61142,-5.66354 -10.73069,-34.49845 -10.73069,-34.49845z" fill="#a5a5a5"/></g></g></g></svg>