<svg version="1.1" xmlns="http://www.w3.org/2000/svg" xmlns:xlink="http://www.w3.org/1999/xlink" width="701.35735" height="384.65014" viewBox="0,0,701.35735,384.65014"><g transform="translate(112.70269,10.69069)"><g data-paper-data="{&quot;isPaintingLayer&quot;:true}" fill-rule="nonzero" stroke="none" stroke-width="0" stroke-linecap="butt" stroke-linejoin="miter" stroke-miterlimit="10" stroke-dasharray="" stroke-dashoffset="0" style="mix-blend-mode: normal"><path d="M-112.49249,373.6937v-384.38438h701.14715v384.38439z" fill="#7e3eff"/><path d="M19.42944,373.77713c0,0 54.41109,-9.08616 96.26733,-43.33427c23.58231,-19.2958 38.1357,-51.64663 65.82369,-71.47442c36.02586,-25.79868 85.96422,-38.72022 121.69277,-59.36548c27.46536,-15.87049 56.51131,-42.38372 87.07534,-58.58071c19.98161,-10.58898 40.61207,-11.61023 61.8739,-20.25999c78.74949,-32.03695 136.33605,-75.81394 136.33605,-75.81394v328.82883z" fill="#7b00d9"/><path d="M199.75034,373.95945c0,0 46.91393,-26.28621 86.76793,-64.6821c26.41302,-25.44666 42.14713,-63.24105 66.38522,-78.62721c13.59805,-8.63195 38.60373,-13.3541 60.02903,-25.70424c27.86881,-16.06436 53.83561,-39.84006 83.36298,-48.65949c49.28821,-14.72171 92.26016,-6.71735 92.26016,-6.71735v224.3904z" fill="#a200a3"/><path d="M338.96496,373.87386c0,0 33.09953,-8.89875 58.84256,-34.38493c29.60118,-29.30582 53.82968,-76.67329 79.29558,-93.24269c47.61265,-30.97921 111.09258,-34.53454 111.09258,-34.53454v162.16216z" fill="#bd0065"/><path d="M-112.45269,301.95506v-312.31231h552.29982c0,0 -11.44648,24.27467 -47.35184,54.83753c-32.61078,27.7585 -86.61974,20.48182 -136.70417,50.88685c-51.35239,31.17478 -74.86295,90.95267 -116.24429,113.49485c-56.1013,30.56077 -87.72451,39.16703 -140.56996,50.97478c-66.00968,14.74917 -111.42957,42.11832 -111.42957,42.11832z" fill="#6000ff"/><path d="M445.2939,373.95795c0,0 28.82855,-43.55734 58.55856,-67.56756c29.73002,-24.01022 84.59937,-48.04805 84.59937,-48.04805v115.61562z" fill="#ff0000"/><path d="M-112.70269,225.01605v-235.3733h372.37237c0,0 -23.69775,13.79905 -48.27513,54.28847c-19.9599,21.76198 -34.5417,27.52952 -60.10293,39.74105c-25.50069,12.18261 -58.98267,26.30265 -76.30662,43.74619c-54.83584,55.2144 -71.43603,65.48199 -104.78157,67.41449c-32.00027,1.85453 -82.90611,30.18311 -82.90611,30.18311z" fill="#3a00ff"/><path d="M-112.70269,133.53689v-144.14414h202.7027c0,0 -54.50991,60.7057 -93.09309,90.09009c-39.68548,30.22388 -109.60961,54.05406 -109.60961,54.05406z" fill="#0067ff"/></g></g></svg>